<?xml version="1.0" standalone="no"?><!DOCTYPE svg PUBLIC "-//W3C//DTD SVG 1.1//EN" "http://www.w3.org/Graphics/SVG/1.1/DTD/svg11.dtd"><svg t="1766555835851" class="icon" viewBox="0 0 1137 1024" version="1.1" xmlns="http://www.w3.org/2000/svg" p-id="11417" width="53.296875" height="48" xmlns:xlink="http://www.w3.org/1999/xlink"><path d="M568.32 6.257778C288.995556 6.257778 62.577778 232.675556 62.577778 512s226.417778 505.742222 505.742222 505.742222 505.742222-226.417778 505.742222-505.742222c0-279.324444-226.417778-505.742222-505.742222-505.742222z m240.071111 629.76c-172.942222 172.942222-481.848889 117.76-481.848889 117.76s-55.751111-308.337778 117.76-481.848889C540.444444 175.786667 699.733333 179.768889 800.426667 279.893333s104.106667 259.982222 7.964444 356.124445z" fill="#4161F3" p-id="11418"></path><path d="M626.346667 302.648889l-49.493334 101.831111-101.831111 49.493333 101.831111 49.493334 49.493334 101.831111 49.493333-101.831111 101.831111-49.493334-101.831111-49.493333z" fill="#4161F3" p-id="11419"></path></svg>