<?xml version="1.0" standalone="no"?><!DOCTYPE svg PUBLIC "-//W3C//DTD SVG 1.1//EN" "http://www.w3.org/Graphics/SVG/1.1/DTD/svg11.dtd"><svg t="1766555868099" class="icon" viewBox="0 0 1024 1024" version="1.1" xmlns="http://www.w3.org/2000/svg" p-id="13531" xmlns:xlink="http://www.w3.org/1999/xlink" width="48" height="48"><path d="M512 992c-38.4 0-76.8-12.8-108.8-38.4L44.8 665.6C19.2 640 0 608 0 569.6s19.2-70.4 51.2-96l358.4-288c57.6-51.2 153.6-51.2 217.6 0l358.4 288c19.2 25.6 38.4 64 38.4 96 0 38.4-19.2 70.4-44.8 96l-358.4 288c-32 25.6-70.4 38.4-108.8 38.4zM512 211.2c-25.6 0-51.2 6.4-70.4 25.6L83.2 524.8c-12.8 12.8-25.6 32-25.6 44.8 0 19.2 6.4 38.4 25.6 51.2l358.4 288c38.4 32 102.4 32 140.8 0l358.4-288c19.2-12.8 25.6-32 25.6-51.2 0-19.2-6.4-38.4-25.6-51.2L582.4 236.8c-19.2-19.2-44.8-25.6-70.4-25.6z" fill="#1296db" p-id="13532"></path><path d="M985.6 345.6L608 38.4c-51.2-44.8-134.4-44.8-192 0L38.4 345.6c-51.2 44.8-51.2 108.8 0 153.6l377.6 307.2c51.2 44.8 134.4 44.8 192 0l377.6-307.2c51.2-44.8 51.2-115.2 0-153.6z" fill="#1296db" p-id="13533"></path></svg>